<mxfile host="65bd71144e">
    <diagram id="S2kZE4l7otph4AjLQk1T" name="Page-1">
        <mxGraphModel dx="454" dy="408" grid="1" gridSize="10" guides="1" tooltips="1" connect="1" arrows="1" fold="1" page="1" pageScale="1" pageWidth="850" pageHeight="1100" math="0" shadow="0">
            <root>
                <mxCell id="0"/>
                <mxCell id="1" parent="0"/>
                <mxCell id="2" value="recipe" style="whiteSpace=wrap;html=1;align=center;fillColor=#008a00;fontColor=#ffffff;strokeColor=#005700;fontStyle=1;fontSize=13;" vertex="1" parent="1">
                    <mxGeometry x="154" y="120" width="60" height="20" as="geometry"/>
                </mxCell>
                <mxCell id="4" value="users" style="whiteSpace=wrap;html=1;align=center;fillColor=#008a00;fontColor=#ffffff;strokeColor=#005700;fontStyle=1;fontSize=13;" vertex="1" parent="1">
                    <mxGeometry x="575" y="120" width="60" height="20" as="geometry"/>
                </mxCell>
                <mxCell id="5" value="coments" style="whiteSpace=wrap;html=1;align=center;fillColor=#008a00;fontColor=#ffffff;strokeColor=#005700;fontStyle=1;fontSize=13;" vertex="1" parent="1">
                    <mxGeometry x="565" y="320" width="80" height="20" as="geometry"/>
                </mxCell>
                <mxCell id="6" value="labels" style="whiteSpace=wrap;html=1;align=center;fillColor=#008a00;fontColor=#ffffff;strokeColor=#005700;fontStyle=1;fontSize=13;" vertex="1" parent="1">
                    <mxGeometry x="149" y="320" width="70" height="20" as="geometry"/>
                </mxCell>
                <mxCell id="7" value="id" style="ellipse;whiteSpace=wrap;html=1;align=center;fontStyle=4;fillColor=#6d8764;fontColor=#333333;strokeColor=#3A5431;" vertex="1" parent="1">
                    <mxGeometry x="214" y="70" width="70" height="30" as="geometry"/>
                </mxCell>
                <mxCell id="8" value="id" style="ellipse;whiteSpace=wrap;html=1;align=center;fontStyle=4;fillColor=#6d8764;fontColor=#333333;strokeColor=#3A5431;" vertex="1" parent="1">
                    <mxGeometry x="60" y="330" width="70" height="30" as="geometry"/>
                </mxCell>
                <mxCell id="9" value="id" style="ellipse;whiteSpace=wrap;html=1;align=center;fontStyle=4;fillColor=#6d8764;fontColor=#333333;strokeColor=#3A5431;" vertex="1" parent="1">
                    <mxGeometry x="520" y="60" width="70" height="30" as="geometry"/>
                </mxCell>
                <mxCell id="10" value="id" style="ellipse;whiteSpace=wrap;html=1;align=center;fontStyle=4;fillColor=#6d8764;fontColor=#333333;strokeColor=#3A5431;" vertex="1" parent="1">
                    <mxGeometry x="645" y="290" width="70" height="30" as="geometry"/>
                </mxCell>
                <mxCell id="12" value="title" style="ellipse;whiteSpace=wrap;html=1;align=center;fillColor=#6d8764;fontColor=#333333;strokeColor=#3A5431;" vertex="1" parent="1">
                    <mxGeometry x="154" y="30" width="70" height="30" as="geometry"/>
                </mxCell>
                <mxCell id="13" value="date" style="ellipse;whiteSpace=wrap;html=1;align=center;fillColor=#6d8764;fontColor=#333333;strokeColor=#3A5431;" vertex="1" parent="1">
                    <mxGeometry x="84" y="50" width="70" height="30" as="geometry"/>
                </mxCell>
                <mxCell id="16" value="ingredients" style="ellipse;shape=doubleEllipse;margin=3;whiteSpace=wrap;html=1;align=center;fillColor=#6d8764;fontColor=#333333;strokeColor=#3A5431;" vertex="1" parent="1">
                    <mxGeometry x="60" y="90" width="70" height="30" as="geometry"/>
                </mxCell>
                <mxCell id="17" value="steps" style="ellipse;shape=doubleEllipse;margin=3;whiteSpace=wrap;html=1;align=center;fillColor=#6d8764;fontColor=#333333;strokeColor=#3A5431;" vertex="1" parent="1">
                    <mxGeometry x="30" y="180" width="70" height="30" as="geometry"/>
                </mxCell>
                <mxCell id="19" value="procedure" style="ellipse;whiteSpace=wrap;html=1;align=center;fillColor=#6d8764;fontColor=#333333;strokeColor=#3A5431;" vertex="1" parent="1">
                    <mxGeometry x="60" y="130" width="70" height="30" as="geometry"/>
                </mxCell>
                <mxCell id="20" value="date" style="ellipse;whiteSpace=wrap;html=1;align=center;fillColor=#6d8764;fontColor=#333333;strokeColor=#3A5431;" vertex="1" parent="1">
                    <mxGeometry x="610" y="360" width="70" height="30" as="geometry"/>
                </mxCell>
                <mxCell id="21" value="content" style="ellipse;whiteSpace=wrap;html=1;align=center;fillColor=#6d8764;fontColor=#333333;strokeColor=#3A5431;" vertex="1" parent="1">
                    <mxGeometry x="670" y="330" width="70" height="30" as="geometry"/>
                </mxCell>
                <mxCell id="23" value="username" style="ellipse;whiteSpace=wrap;html=1;align=center;fillColor=#6d8764;fontColor=#333333;strokeColor=#3A5431;" vertex="1" parent="1">
                    <mxGeometry x="580" y="30" width="70" height="30" as="geometry"/>
                </mxCell>
                <mxCell id="24" value="nickname" style="ellipse;whiteSpace=wrap;html=1;align=center;fillColor=#6d8764;fontColor=#333333;strokeColor=#3A5431;" vertex="1" parent="1">
                    <mxGeometry x="645" y="60" width="70" height="30" as="geometry"/>
                </mxCell>
                <mxCell id="25" value="e-mail" style="ellipse;whiteSpace=wrap;html=1;align=center;fillColor=#6d8764;fontColor=#333333;strokeColor=#3A5431;" vertex="1" parent="1">
                    <mxGeometry x="660" y="100" width="70" height="30" as="geometry"/>
                </mxCell>
                <mxCell id="26" value="password" style="ellipse;whiteSpace=wrap;html=1;align=center;fillColor=#6d8764;fontColor=#333333;strokeColor=#3A5431;" vertex="1" parent="1">
                    <mxGeometry x="660" y="140" width="70" height="30" as="geometry"/>
                </mxCell>
                <mxCell id="28" value="name" style="ellipse;whiteSpace=wrap;html=1;align=center;fillColor=#6d8764;fontColor=#333333;strokeColor=#3A5431;" vertex="1" parent="1">
                    <mxGeometry x="130" y="360" width="70" height="30" as="geometry"/>
                </mxCell>
                <mxCell id="33" value="write" style="shape=rhombus;perimeter=rhombusPerimeter;whiteSpace=wrap;html=1;align=center;fillColor=#ffe6cc;strokeColor=#d79b00;fontColor=#333333;" vertex="1" parent="1">
                    <mxGeometry x="370" y="110" width="80" height="40" as="geometry"/>
                </mxCell>
                <mxCell id="36" value="have" style="shape=rhombus;perimeter=rhombusPerimeter;whiteSpace=wrap;html=1;align=center;fillColor=#ffe6cc;strokeColor=#d79b00;fontColor=#333333;" vertex="1" parent="1">
                    <mxGeometry x="144" y="210" width="80" height="40" as="geometry"/>
                </mxCell>
                <mxCell id="41" value="" style="endArrow=none;html=1;rounded=0;entryX=1;entryY=0.5;entryDx=0;entryDy=0;exitX=0;exitY=0.5;exitDx=0;exitDy=0;" edge="1" parent="1" source="4" target="33">
                    <mxGeometry relative="1" as="geometry">
                        <mxPoint x="360" y="270" as="sourcePoint"/>
                        <mxPoint x="520" y="270" as="targetPoint"/>
                    </mxGeometry>
                </mxCell>
                <mxCell id="42" value="1" style="resizable=0;html=1;align=right;verticalAlign=bottom;" connectable="0" vertex="1" parent="41">
                    <mxGeometry x="1" relative="1" as="geometry"/>
                </mxCell>
                <mxCell id="43" value="" style="endArrow=none;html=1;rounded=0;entryX=0;entryY=0.5;entryDx=0;entryDy=0;exitX=1;exitY=0.5;exitDx=0;exitDy=0;" edge="1" parent="1" source="2" target="33">
                    <mxGeometry relative="1" as="geometry">
                        <mxPoint x="360" y="270" as="sourcePoint"/>
                        <mxPoint x="520" y="270" as="targetPoint"/>
                    </mxGeometry>
                </mxCell>
                <mxCell id="44" value="N" style="resizable=0;html=1;align=right;verticalAlign=bottom;" connectable="0" vertex="1" parent="43">
                    <mxGeometry x="1" relative="1" as="geometry"/>
                </mxCell>
                <mxCell id="45" value="" style="endArrow=none;html=1;rounded=0;exitX=0.5;exitY=0;exitDx=0;exitDy=0;entryX=0.5;entryY=1;entryDx=0;entryDy=0;" edge="1" parent="1" source="6" target="36">
                    <mxGeometry relative="1" as="geometry">
                        <mxPoint x="384" y="340" as="sourcePoint"/>
                        <mxPoint x="360" y="290" as="targetPoint"/>
                    </mxGeometry>
                </mxCell>
                <mxCell id="46" value="N" style="resizable=0;html=1;align=right;verticalAlign=bottom;" connectable="0" vertex="1" parent="45">
                    <mxGeometry x="1" relative="1" as="geometry">
                        <mxPoint x="-4" y="19" as="offset"/>
                    </mxGeometry>
                </mxCell>
                <mxCell id="47" value="" style="endArrow=none;html=1;rounded=0;exitX=0.5;exitY=1;exitDx=0;exitDy=0;" edge="1" parent="1" source="2" target="36">
                    <mxGeometry relative="1" as="geometry">
                        <mxPoint x="234" y="150" as="sourcePoint"/>
                        <mxPoint x="390" y="150" as="targetPoint"/>
                    </mxGeometry>
                </mxCell>
                <mxCell id="48" value="N" style="resizable=0;html=1;align=right;verticalAlign=bottom;" connectable="0" vertex="1" parent="47">
                    <mxGeometry x="1" relative="1" as="geometry">
                        <mxPoint x="-4" as="offset"/>
                    </mxGeometry>
                </mxCell>
                <mxCell id="49" value="have" style="shape=rhombus;perimeter=rhombusPerimeter;whiteSpace=wrap;html=1;align=center;fillColor=#ffe6cc;strokeColor=#d79b00;fontColor=#333333;" vertex="1" parent="1">
                    <mxGeometry x="320" y="220" width="80" height="40" as="geometry"/>
                </mxCell>
                <mxCell id="50" value="" style="endArrow=none;html=1;rounded=0;entryX=1;entryY=0.5;entryDx=0;entryDy=0;exitX=0;exitY=0.5;exitDx=0;exitDy=0;" edge="1" parent="1" source="5" target="49">
                    <mxGeometry relative="1" as="geometry">
                        <mxPoint x="585" y="140" as="sourcePoint"/>
                        <mxPoint x="460" y="140" as="targetPoint"/>
                        <Array as="points">
                            <mxPoint x="500" y="330"/>
                            <mxPoint x="500" y="240"/>
                        </Array>
                    </mxGeometry>
                </mxCell>
                <mxCell id="51" value="1" style="resizable=0;html=1;align=right;verticalAlign=bottom;" connectable="0" vertex="1" parent="50">
                    <mxGeometry x="1" relative="1" as="geometry">
                        <mxPoint x="12" y="-1" as="offset"/>
                    </mxGeometry>
                </mxCell>
                <mxCell id="52" value="" style="endArrow=none;html=1;rounded=0;entryX=0;entryY=0.5;entryDx=0;entryDy=0;exitX=1;exitY=1;exitDx=0;exitDy=0;" edge="1" parent="1" source="2" target="49">
                    <mxGeometry relative="1" as="geometry">
                        <mxPoint x="224" y="140" as="sourcePoint"/>
                        <mxPoint x="380" y="140" as="targetPoint"/>
                        <Array as="points">
                            <mxPoint x="250" y="140"/>
                            <mxPoint x="250" y="240"/>
                        </Array>
                    </mxGeometry>
                </mxCell>
                <mxCell id="53" value="N" style="resizable=0;html=1;align=right;verticalAlign=bottom;" connectable="0" vertex="1" parent="52">
                    <mxGeometry x="1" relative="1" as="geometry">
                        <mxPoint x="-3" y="-1" as="offset"/>
                    </mxGeometry>
                </mxCell>
                <mxCell id="54" value="write" style="shape=rhombus;perimeter=rhombusPerimeter;whiteSpace=wrap;html=1;align=center;fillColor=#ffe6cc;strokeColor=#d79b00;fontColor=#333333;" vertex="1" parent="1">
                    <mxGeometry x="565" y="210" width="80" height="40" as="geometry"/>
                </mxCell>
                <mxCell id="55" value="" style="endArrow=none;html=1;rounded=0;entryX=0.5;entryY=0;entryDx=0;entryDy=0;exitX=0.5;exitY=1;exitDx=0;exitDy=0;" edge="1" parent="1" source="4" target="54">
                    <mxGeometry relative="1" as="geometry">
                        <mxPoint x="224" y="140" as="sourcePoint"/>
                        <mxPoint x="380" y="140" as="targetPoint"/>
                    </mxGeometry>
                </mxCell>
                <mxCell id="56" value="N" style="resizable=0;html=1;align=right;verticalAlign=bottom;" connectable="0" vertex="1" parent="55">
                    <mxGeometry x="1" relative="1" as="geometry">
                        <mxPoint x="-6" y="1" as="offset"/>
                    </mxGeometry>
                </mxCell>
                <mxCell id="57" value="" style="endArrow=none;html=1;rounded=0;entryX=0.5;entryY=1;entryDx=0;entryDy=0;exitX=0.5;exitY=0;exitDx=0;exitDy=0;" edge="1" parent="1" source="5" target="54">
                    <mxGeometry relative="1" as="geometry">
                        <mxPoint x="585" y="140" as="sourcePoint"/>
                        <mxPoint x="460" y="140" as="targetPoint"/>
                    </mxGeometry>
                </mxCell>
                <mxCell id="58" value="1" style="resizable=0;html=1;align=right;verticalAlign=bottom;" connectable="0" vertex="1" parent="57">
                    <mxGeometry x="1" relative="1" as="geometry">
                        <mxPoint x="-6" y="15" as="offset"/>
                    </mxGeometry>
                </mxCell>
                <mxCell id="59" value="" style="endArrow=none;html=1;rounded=0;fontSize=13;fontColor=#006600;exitX=0;exitY=1;exitDx=0;exitDy=0;entryX=0;entryY=0;entryDx=0;entryDy=0;spacing=5;" edge="1" parent="1" source="7" target="2">
                    <mxGeometry relative="1" as="geometry">
                        <mxPoint x="360" y="270" as="sourcePoint"/>
                        <mxPoint x="520" y="270" as="targetPoint"/>
                    </mxGeometry>
                </mxCell>
                <mxCell id="60" value="" style="endArrow=none;html=1;rounded=0;fontSize=13;fontColor=#006600;exitX=0.5;exitY=1;exitDx=0;exitDy=0;entryX=0;entryY=0;entryDx=0;entryDy=0;spacing=5;" edge="1" parent="1" source="12" target="2">
                    <mxGeometry relative="1" as="geometry">
                        <mxPoint x="234.25126265847098" y="105.6066017177983" as="sourcePoint"/>
                        <mxPoint x="224" y="130" as="targetPoint"/>
                    </mxGeometry>
                </mxCell>
                <mxCell id="61" value="" style="endArrow=none;html=1;rounded=0;fontSize=13;fontColor=#006600;exitX=1;exitY=1;exitDx=0;exitDy=0;entryX=0;entryY=0;entryDx=0;entryDy=0;spacing=5;" edge="1" parent="1" source="13" target="2">
                    <mxGeometry relative="1" as="geometry">
                        <mxPoint x="234.25126265847098" y="105.6066017177983" as="sourcePoint"/>
                        <mxPoint x="164" y="130" as="targetPoint"/>
                    </mxGeometry>
                </mxCell>
                <mxCell id="62" value="" style="endArrow=none;html=1;rounded=0;fontSize=13;fontColor=#006600;exitX=0;exitY=0;exitDx=0;exitDy=0;entryX=1.021;entryY=0.733;entryDx=0;entryDy=0;spacing=5;entryPerimeter=0;" edge="1" parent="1" source="2" target="16">
                    <mxGeometry relative="1" as="geometry">
                        <mxPoint x="153.74873734152925" y="85.6066017177983" as="sourcePoint"/>
                        <mxPoint x="164" y="130" as="targetPoint"/>
                    </mxGeometry>
                </mxCell>
                <mxCell id="63" value="" style="endArrow=none;html=1;rounded=0;fontSize=13;fontColor=#006600;entryX=1;entryY=0.5;entryDx=0;entryDy=0;spacing=5;exitX=0;exitY=0;exitDx=0;exitDy=0;" edge="1" parent="1" source="2" target="19">
                    <mxGeometry relative="1" as="geometry">
                        <mxPoint x="170" y="130" as="sourcePoint"/>
                        <mxPoint x="141.47000000000003" y="121.99000000000012" as="targetPoint"/>
                    </mxGeometry>
                </mxCell>
                <mxCell id="64" value="" style="endArrow=none;html=1;rounded=0;fontSize=13;fontColor=#006600;exitX=0.5;exitY=0;exitDx=0;exitDy=0;entryX=0.5;entryY=1;entryDx=0;entryDy=0;spacing=5;" edge="1" parent="1" source="17" target="19">
                    <mxGeometry relative="1" as="geometry">
                        <mxPoint x="174" y="140" as="sourcePoint"/>
                        <mxPoint x="151.47000000000003" y="131.99000000000012" as="targetPoint"/>
                    </mxGeometry>
                </mxCell>
                <mxCell id="65" value="" style="endArrow=none;html=1;rounded=0;fontSize=13;fontColor=#006600;exitX=0;exitY=1;exitDx=0;exitDy=0;entryX=1;entryY=0;entryDx=0;entryDy=0;spacing=5;" edge="1" parent="1" source="6" target="8">
                    <mxGeometry relative="1" as="geometry">
                        <mxPoint x="184" y="150" as="sourcePoint"/>
                        <mxPoint x="161.47000000000003" y="141.99000000000012" as="targetPoint"/>
                    </mxGeometry>
                </mxCell>
                <mxCell id="66" value="" style="endArrow=none;html=1;rounded=0;fontSize=13;fontColor=#006600;exitX=0;exitY=0;exitDx=0;exitDy=0;entryX=0;entryY=1;entryDx=0;entryDy=0;spacing=5;" edge="1" parent="1" source="28" target="6">
                    <mxGeometry relative="1" as="geometry">
                        <mxPoint x="194" y="160" as="sourcePoint"/>
                        <mxPoint x="171.47000000000003" y="151.99000000000012" as="targetPoint"/>
                    </mxGeometry>
                </mxCell>
                <mxCell id="67" value="" style="endArrow=none;html=1;rounded=0;fontSize=13;fontColor=#006600;exitX=1;exitY=1;exitDx=0;exitDy=0;entryX=0.5;entryY=0;entryDx=0;entryDy=0;spacing=5;" edge="1" parent="1" source="5" target="20">
                    <mxGeometry relative="1" as="geometry">
                        <mxPoint x="204" y="170" as="sourcePoint"/>
                        <mxPoint x="181.47000000000003" y="161.99000000000012" as="targetPoint"/>
                    </mxGeometry>
                </mxCell>
                <mxCell id="68" value="" style="endArrow=none;html=1;rounded=0;fontSize=13;fontColor=#006600;exitX=0;exitY=0.5;exitDx=0;exitDy=0;entryX=1;entryY=1;entryDx=0;entryDy=0;spacing=5;" edge="1" parent="1" source="21" target="5">
                    <mxGeometry relative="1" as="geometry">
                        <mxPoint x="214" y="180" as="sourcePoint"/>
                        <mxPoint x="191.47000000000003" y="171.99000000000012" as="targetPoint"/>
                    </mxGeometry>
                </mxCell>
                <mxCell id="69" value="" style="endArrow=none;html=1;rounded=0;fontSize=13;fontColor=#006600;exitX=0.5;exitY=1;exitDx=0;exitDy=0;entryX=1;entryY=1;entryDx=0;entryDy=0;spacing=5;" edge="1" parent="1" source="10" target="5">
                    <mxGeometry relative="1" as="geometry">
                        <mxPoint x="224" y="190" as="sourcePoint"/>
                        <mxPoint x="201.47000000000003" y="181.99000000000012" as="targetPoint"/>
                    </mxGeometry>
                </mxCell>
                <mxCell id="70" value="" style="endArrow=none;html=1;rounded=0;fontSize=13;fontColor=#006600;exitX=0;exitY=0.5;exitDx=0;exitDy=0;entryX=1;entryY=0;entryDx=0;entryDy=0;spacing=5;" edge="1" parent="1" source="25" target="4">
                    <mxGeometry relative="1" as="geometry">
                        <mxPoint x="234" y="200" as="sourcePoint"/>
                        <mxPoint x="211.47000000000003" y="191.99000000000012" as="targetPoint"/>
                    </mxGeometry>
                </mxCell>
                <mxCell id="71" value="" style="endArrow=none;html=1;rounded=0;fontSize=13;fontColor=#006600;exitX=0;exitY=1;exitDx=0;exitDy=0;entryX=1;entryY=0;entryDx=0;entryDy=0;spacing=5;" edge="1" parent="1" source="24" target="4">
                    <mxGeometry relative="1" as="geometry">
                        <mxPoint x="244" y="210" as="sourcePoint"/>
                        <mxPoint x="221.47000000000003" y="201.99000000000012" as="targetPoint"/>
                    </mxGeometry>
                </mxCell>
                <mxCell id="72" value="" style="endArrow=none;html=1;rounded=0;fontSize=13;fontColor=#006600;exitX=0.5;exitY=1;exitDx=0;exitDy=0;entryX=1;entryY=0;entryDx=0;entryDy=0;spacing=5;" edge="1" parent="1" source="23" target="4">
                    <mxGeometry relative="1" as="geometry">
                        <mxPoint x="254" y="220" as="sourcePoint"/>
                        <mxPoint x="231.47000000000003" y="211.99000000000012" as="targetPoint"/>
                    </mxGeometry>
                </mxCell>
                <mxCell id="73" value="" style="endArrow=none;html=1;rounded=0;fontSize=13;fontColor=#006600;exitX=1;exitY=0.5;exitDx=0;exitDy=0;entryX=1;entryY=0;entryDx=0;entryDy=0;spacing=5;" edge="1" parent="1" source="9" target="4">
                    <mxGeometry relative="1" as="geometry">
                        <mxPoint x="264" y="230" as="sourcePoint"/>
                        <mxPoint x="241.47000000000003" y="221.99000000000012" as="targetPoint"/>
                    </mxGeometry>
                </mxCell>
                <mxCell id="74" value="" style="endArrow=none;html=1;rounded=0;fontSize=13;fontColor=#006600;exitX=1;exitY=0;exitDx=0;exitDy=0;entryX=0;entryY=0.5;entryDx=0;entryDy=0;spacing=5;" edge="1" parent="1" source="4" target="26">
                    <mxGeometry relative="1" as="geometry">
                        <mxPoint x="274" y="240" as="sourcePoint"/>
                        <mxPoint x="251.47000000000003" y="231.99000000000012" as="targetPoint"/>
                    </mxGeometry>
                </mxCell>
                <mxCell id="75" value="Family's Recipe book,&lt;br&gt;by Elvia Echauri" style="text;html=1;strokeColor=#23445d;fillColor=#bac8d3;align=center;verticalAlign=middle;whiteSpace=wrap;rounded=0;fontSize=13;fontColor=#4D4D4D;" vertex="1" parent="1">
                    <mxGeometry x="284" y="320" width="154" height="70" as="geometry"/>
                </mxCell>
            </root>
        </mxGraphModel>
    </diagram>
</mxfile>